<?xml version="1.0" encoding="UTF-8"?>
<!DOCTYPE svg PUBLIC "-//W3C//DTD SVG 1.1//EN" "http://www.w3.org/Graphics/SVG/1.1/DTD/svg11.dtd">
<!-- Creator: CorelDRAW X8 -->
<svg xmlns="http://www.w3.org/2000/svg" xml:space="preserve" width="0.806661in" height="0.719992in" version="1.1" style="shape-rendering:geometricPrecision; text-rendering:geometricPrecision; image-rendering:optimizeQuality; fill-rule:evenodd; clip-rule:evenodd"
viewBox="0 0 807 720"
 xmlns:xlink="http://www.w3.org/1999/xlink">
 <defs>
  <style type="text/css">
   <![CDATA[
    .fil0 {fill:gray;fill-rule:nonzero}
   ]]>
  </style>
 </defs>
 <g id="Layer_x0020_1">
  <metadata id="CorelCorpID_0Corel-Layer"/>
  <path class="fil0" d="M738 336l-311 1c0,-39 0,-311 0,-312 0,-3 -1,-6 -2,-9 -1,-2 -3,-5 -5,-7 -2,-3 -5,-4 -8,-6l0 0c-3,-1 -5,-1 -8,-1l0 0c-4,0 -7,0 -10,2 -3,1 -5,2 -7,4 -3,3 -5,6 -6,9 -1,2 -1,5 -1,8l-1 312 -310 0c-3,0 -7,0 -10,2 -2,0 -5,2 -7,4 -2,2 -4,5 -5,8 -1,3 -2,6 -2,9 0,3 1,7 2,9 1,3 3,5 5,8 2,2 4,4 7,5 4,1 6,1 10,2l311 -1c0,39 -1,312 -1,312 1,3 1,6 2,9 1,3 3,5 6,7 2,3 4,5 7,6 2,1 6,1 9,1 2,0 4,0 5,0 1,-1 2,-1 4,-2 1,0 3,0 4,-1 1,-1 3,-2 4,-3 2,-2 4,-6 5,-9 1,-2 2,-5 2,-8l0 -311c37,-1 311,-1 311,-1 1,1 3,0 5,0 1,0 3,0 4,-1l0 0c1,-1 3,-1 4,-2 1,-1 2,-2 4,-3 2,-2 4,-5 5,-8 1,-3 2,-6 2,-9l0 0c0,-3 -1,-6 -2,-9 -1,-3 -3,-5 -6,-8 -2,-2 -4,-3 -7,-5 -3,-1 -5,-1 -9,-2l0 0z"/>
 </g>
</svg>
