<svg id="Capa_1" enable-background="new 0 0 512 512" height="512" viewBox="0 0 512 512" width="512" xmlns="http://www.w3.org/2000/svg"><g fill="#D0021B"><path d="m406.606 105.394c-5.857-5.858-15.355-5.858-21.213 0l-129.393 129.393-129.394-129.393c-5.857-5.858-15.355-5.858-21.213 0s-5.858 15.355 0 21.213l129.394 129.393-129.393 129.394c-5.858 5.858-5.858 15.355 0 21.213 2.928 2.929 6.767 4.393 10.606 4.393s7.678-1.464 10.606-4.394l129.394-129.393 129.394 129.394c2.928 2.929 6.767 4.393 10.606 4.393s7.678-1.464 10.606-4.394c5.858-5.858 5.858-15.355 0-21.213l-129.393-129.393 129.394-129.394c5.858-5.857 5.858-15.355-.001-21.212z"/><path d="m437 0h-362c-41.355 0-75 33.645-75 75v362c0 41.355 33.645 75 75 75h362c41.355 0 75-33.645 75-75v-362c0-41.355-33.645-75-75-75zm45 437c0 24.813-20.187 45-45 45h-362c-24.813 0-45-20.187-45-45v-362c0-24.813 20.187-45 45-45h362c24.813 0 45 20.187 45 45z"/></g></svg>